# xmcd
#
# Track frame offsets:
#	150
#	21855
#	77770
#	87425
#	116202
#	121725
#	129035
#	139152
#	145150
#	146255
#	156027
#	161097
#	167625
#	174777
#	175972
#	185697
#	189100
#	196150
#	204602
#	209827
#	218507
#	227027
#	235177
#	240847
#	245680
#	249897
#	257130
#	270027
#	291657
#	301295
#
# Disc length: 4397 seconds
#
# Revision: 1
# Processed by: cddbd v1.5.1PL0 Copyright (c) Steve Scherf et al.
# Submitted via: CDex 1.50Beta5
#
DISCID=9e112b1e
DTITLE=横山智佐 - サクラ大戦2 花組公演音楽集〜大正十四年版〜
DYEAR=1999
DGENRE=Game
TTITLE0=横山智佐/暁の戦士
TTITLE1=帝国歌劇団 花組/ドリーム/夢の1ポンド
TTITLE2=田中真弓/チャンバラブギ
TTITLE3=伊倉一恵/希望
TTITLE4=多田彰文/怪傑少年レッドのテーマ
TTITLE5=多田彰文/サスペンス
TTITLE6=多田彰文/おどろおどろしい音楽
TTITLE7=多田彰文/ウイリアムのテーマ
TTITLE8=多田彰文/ファンファーレ
TTITLE9=多田彰文/陰謀1
TTITLE10=多田彰文/陰謀2
TTITLE11=多田彰文/嵐の前ぶれ
TTITLE12=多田彰文/森の妖精のテーマ
TTITLE13=多田彰文/薬の魔法、解ける
TTITLE14=多田彰文/リア王のテーマ
TTITLE15=多田彰文/赤城山のテーマ
TTITLE16=多田彰文/吉良のテーマ
TTITLE17=多田彰文/花之丞のテーマ
TTITLE18=田中公平/夏休みのテーマ
TTITLE19=田中公平/帝劇・夜のテーマ
TTITLE20=田中公平/レニのテーマ
TTITLE21=多田彰文/謎/解決のテーマ
TTITLE22=多田彰文/戦いのテーマ
TTITLE23=多田彰文/フックのテーマ
TTITLE24=田中公平/希望に満ちて
TTITLE25=多田彰文/夜の国のテーマ
TTITLE26=多田彰文/未来の音楽
TTITLE27=田中公平/暁の戦士
TTITLE28=田中公平/チャンバラブギ
TTITLE29=田中公平/希望
EXTD=
EXTT0=
EXTT1=
EXTT2=
EXTT3=
EXTT4=
EXTT5=
EXTT6=
EXTT7=
EXTT8=
EXTT9=
EXTT10=
EXTT11=
EXTT12=
EXTT13=
EXTT14=
EXTT15=
EXTT16=
EXTT17=
EXTT18=
EXTT19=
EXTT20=
EXTT21=
EXTT22=
EXTT23=
EXTT24=
EXTT25=
EXTT26=
EXTT27=
EXTT28=
EXTT29=
PLAYORDER=
